<svg width="144.72mm" height="23.853mm" viewBox="0 0 144.72 23.853" xmlns="http://www.w3.org/2000/svg">
 <defs>
  <pattern width="533.76564" height="75.046874" fill="#000000" patternTransform="translate(151.46 444.16)" patternUnits="userSpaceOnUse" preserveAspectRatio="xMidYMid">
   <text x="-7.96875" y="73.40625" font-size="96px" xml:space="preserve"><tspan x="-7.96875" y="73.40625" font-family="Verdana" font-size="96px" font-weight="bold">rediff <tspan fill="#ff0000">com</tspan></tspan></text>
  </pattern>
 </defs>
 <g transform="translate(-40.489 -127.68)">
  <path d="m103.36 130.95c-1.8356 0-3.2081 0.42581-4.1176 1.2774-0.90124 0.85163-1.3519 2.1291-1.3519 3.8323v0.38448h-1.91v3.0262h1.91v10.902h4.4648v-10.902h3.299v-3.0262h-3.4478v-0.11162c0-0.90124 0.15297-1.509 0.45889-1.8232 0.31419-0.31419 0.9095-0.47129 1.7859-0.47129 0.3638 0 0.70279 0.0372 1.017 0.11162 0.32246 0.0744 0.58291 0.14057 0.78135 0.19844h0.33486v-3.1502c-0.41341-0.0744-0.88884-0.1323-1.4263-0.17364-0.53744-0.0496-1.1369-0.0744-1.7983-0.0744zm10.728 0c-1.8356 0-3.2081 0.42581-4.1176 1.2774-0.90123 0.85163-1.3519 2.1291-1.3519 3.8323v0.38448h-1.91v3.0262h1.91v10.902h4.4648v-10.902h3.299v-3.0262h-3.4478v-0.11162c0-0.90124 0.15296-1.509 0.45889-1.8232 0.31419-0.31419 0.9095-0.47129 1.7859-0.47129 0.3638 0 0.7028 0.0372 1.017 0.11162 0.32246 0.0744 0.58291 0.14057 0.78135 0.19844h0.33487v-3.1502c-0.41342-0.0744-0.88884-0.1323-1.4263-0.17364-0.53744-0.0496-1.1369-0.0744-1.7983-0.0744zm-33.896 0.12402v5.9283c-0.56224-0.27285-1.1121-0.49609-1.6495-0.66972-0.52917-0.1819-1.2113-0.27286-2.0464-0.27286-0.80202 0-1.604 0.17364-2.4061 0.5209-0.80202 0.339-1.4841 0.81855-2.0464 1.4387-0.59531 0.65319-1.0666 1.4387-1.4139 2.3564-0.339 0.90951-0.5085 1.9554-0.5085 3.1378 0 2.2159 0.5085 3.977 1.5255 5.2834 1.017 1.3064 2.373 1.9596 4.068 1.9596 0.87643 0 1.6495-0.14882 2.3192-0.44648 0.66973-0.29766 1.3891-0.76068 2.158-1.3891v1.4511h4.4648v-19.298zm-19.05 4.9361c-2.4557 0-4.3904 0.67387-5.8043 2.0216-1.4056 1.3394-2.1084 3.1585-2.1084 5.457 0 2.3234 0.74414 4.1134 2.2324 5.3702 1.4883 1.2568 3.6298 1.8852 6.4244 1.8852 1.0831 0 2.0712-0.0909 2.9642-0.27285 0.89297-0.1819 1.8438-0.47543 2.8525-0.88057v-3.5843h-0.49609c-0.51263 0.38861-1.2113 0.75242-2.096 1.0914-0.8847 0.339-1.7983 0.5085-2.7409 0.5085-1.4883 0-2.6169-0.28939-3.3858-0.86817-0.76068-0.57878-1.1741-1.4139-1.2402-2.5053h10.22v-1.5627c0-2.1497-0.57051-3.7951-1.7115-4.9361-1.141-1.1493-2.8443-1.7239-5.1098-1.7239zm-10.48 0.38448c-0.61185 0-1.2816 0.14056-2.0092 0.42168-0.7276 0.27285-1.5834 0.83095-2.5673 1.6743v-2.0464h-4.4648v13.928h4.4648v-9.3266c0.56224-0.19844 1.0873-0.339 1.5751-0.42168 0.48783-0.0827 1.0501-0.12403 1.6867-0.12403 0.28112 0 0.63252 0.0165 1.0542 0.0496s0.7276 0.0827 0.91777 0.14883h0.39688v-4.254c-0.14883-0.0165-0.32246-0.0289-0.5209-0.0372-0.19844-8e-3 -0.3762-0.0124-0.5333-0.0124zm38.212 0.0496v13.928h4.4648v-13.928zm-28.091 2.3564c0.92604 0 1.6082 0.23565 2.0464 0.70694 0.43821 0.47128 0.66972 1.1741 0.69453 2.1084h-5.7919c0.06615-0.98392 0.3762-1.6991 0.93018-2.1456 0.55397-0.44648 1.2609-0.66973 2.1208-0.66973zm17.462 0.5209c0.28939 0 0.60772 0.029 0.95498 0.0868 0.34727 0.0579 0.67799 0.15296 0.99219 0.28525v6.8337c-0.34727 0.24805-0.74828 0.45062-1.203 0.60772-0.45475 0.14882-0.8847 0.22324-1.2898 0.22324-1.0418 0-1.7983-0.30593-2.2696-0.91777-0.47129-0.62012-0.70693-1.6123-0.70693-2.9766 0-1.2981 0.29352-2.311 0.88057-3.0386 0.58704-0.73587 1.4676-1.1038 2.6417-1.1038z"/>
  <path d="m149.24 136.01c-2.3978 0-4.2705 0.65733-5.6183 1.972-1.3394 1.3146-2.0092 3.1254-2.0092 5.4322 0 2.2903 0.6656 4.0969 1.9968 5.4198 1.3394 1.3146 3.2163 1.972 5.6307 1.972 2.4143 0 4.2871-0.65733 5.6183-1.972 1.3395-1.3229 2.0092-3.1295 2.0092-5.4198s-0.66559-4.0969-1.9968-5.4198c-1.3229-1.3229-3.1998-1.9844-5.6307-1.9844zm-14.436 0.0496c-1.0583 0-2.0795 0.13643-3.0634 0.40928s-1.8521 0.7028-2.6045 1.2898c-0.77721 0.62012-1.3849 1.4015-1.8231 2.344-0.42995 0.94258-0.64492 2.0629-0.64492 3.361 0 1.232 0.20256 2.3068 0.60771 3.2246 0.40514 0.91778 0.97565 1.6784 1.7115 2.282 0.74414 0.60358 1.6164 1.0501 2.6169 1.3395 1.0087 0.28938 2.1208 0.43408 3.3362 0.43408 0.92605 0 1.7694-0.0992 2.5301-0.29766 0.76894-0.19017 1.5048-0.45062 2.2076-0.78135v-3.8075h-0.63252c-0.1819 0.17363-0.38033 0.3514-0.59531 0.5333-0.21497 0.1819-0.46302 0.35553-0.74414 0.52089-0.29766 0.17364-0.67386 0.3266-1.1286 0.45889-0.44648 0.12402-0.95085 0.18604-1.5131 0.18604-1.2072 0-2.1415-0.34727-2.8029-1.0418-0.65319-0.69453-0.97978-1.7115-0.97978-3.051 0-1.2981 0.31832-2.3234 0.95498-3.0758 0.64492-0.76068 1.5627-1.141 2.7533-1.141 0.53744 0 1.0087 0.062 1.4139 0.18603 0.40514 0.11575 0.77721 0.26459 1.1162 0.44649 0.35553 0.19016 0.65318 0.38447 0.89296 0.58291 0.24805 0.19844 0.45889 0.37207 0.63252 0.52089h0.63252v-3.8075c-0.69453-0.33072-1.4428-0.59944-2.2448-0.80615-0.80202-0.2067-1.6784-0.31006-2.6293-0.31006zm34.268 0c-0.85163 0-1.6288 0.16951-2.3316 0.5085-0.7028 0.339-1.4387 0.81029-2.2076 1.4139v-1.5379h-4.4648v13.928h4.4648v-9.8723c0.33073-0.19844 0.7028-0.38447 1.1162-0.5581 0.41342-0.1819 0.83923-0.27285 1.2774-0.27285 0.54571 0 0.96739 0.0703 1.265 0.21084 0.30593 0.13229 0.5333 0.34726 0.68213 0.64492s0.23979 0.68626 0.27285 1.1658c0.0331 0.47129 0.0496 1.0459 0.0496 1.7239v6.9577h4.4896v-9.8723c0.51263-0.29766 0.94671-0.5085 1.3022-0.63252 0.35553-0.13229 0.71934-0.19843 1.0914-0.19843 0.55398 0 0.98392 0.0703 1.2898 0.21084 0.30592 0.13229 0.52916 0.34726 0.66972 0.64492 0.14884 0.29766 0.23565 0.68213 0.26045 1.1534 0.0331 0.47128 0.0496 1.0501 0.0496 1.7363v6.9577h4.4896v-9.0661c0-1.695-0.39274-2.9931-1.1782-3.8943-0.77722-0.90123-1.9182-1.3519-3.423-1.3519-0.81029 0-1.6371 0.21498-2.4805 0.64493-0.84336 0.42994-1.7115 1.0211-2.6045 1.7735-0.39687-0.79375-0.94671-1.3932-1.6495-1.7983-0.7028-0.41341-1.5131-0.62012-2.4309-0.62012zm-19.831 3.0634c0.42995 0 0.83096 0.0703 1.203 0.21084 0.37207 0.14056 0.69039 0.38035 0.95498 0.71934 0.26458 0.33073 0.47129 0.77308 0.62012 1.327 0.14882 0.55397 0.22324 1.2402 0.22324 2.0588 0 0.8847-0.0744 1.5792-0.22324 2.0836-0.14056 0.4961-0.35554 0.92191-0.64493 1.2774-0.25631 0.32246-0.5705 0.55397-0.94257 0.69453-0.3638 0.1323-0.74828 0.19844-1.1534 0.19844-0.47129 0-0.89297-0.0744-1.265-0.22324-0.36381-0.14883-0.678-0.38447-0.94258-0.70693-0.27285-0.339-0.47956-0.78549-0.62012-1.3395-0.14056-0.56224-0.21084-1.2237-0.21084-1.9844 0-0.85163 0.0786-1.5586 0.23565-2.1208 0.16537-0.56224 0.38447-1.0046 0.65732-1.327 0.30593-0.34727 0.62426-0.57878 0.95498-0.69453 0.339-0.11576 0.72347-0.17364 1.1534-0.17364z" fill="#f00"/>
  <path d="m87.85 130.62v4.841h6.3454v-4.841h-2.913c0.03612 3e-3 0.07184 7e-3 0.10749 0.0114 0.04046 5e-3 0.08111 0.011 0.12092 0.0181 3.35e-4 5e-5 6.98e-4 -6e-5 1e-3 0 0.03684 7e-3 0.07331 0.014 0.10955 0.0222 1.65e-4 3e-5 3.52e-4 -4e-5 5.17e-4 0 0.04021 9e-3 0.07996 0.0199 0.11937 0.031 0.04275 0.0121 0.08486 0.0254 0.12661 0.0398 0.03247 0.0112 0.06481 0.0227 0.09664 0.0351 0.04504 0.0177 0.08915 0.0371 0.13281 0.0574 0.02521 0.0117 0.0502 0.0236 0.07493 0.0362 0.04002 0.0203 0.07914 0.0416 0.11782 0.0641 0.02968 0.0172 0.05899 0.0348 0.08785 0.0532 0.03155 0.0202 0.06249 0.0409 0.09302 0.0625 0.03602 0.0254 0.07142 0.0517 0.10594 0.0791 0.02342 0.0186 0.04655 0.0374 0.06925 0.0568 0.04024 0.0343 0.07943 0.0695 0.11731 0.10645 0.0027 3e-3 0.0056 5e-3 0.0083 8e-3 0.01304 0.0129 0.02549 0.0261 0.03824 0.0393 0.03983 0.041 0.0784 0.0834 0.11524 0.12712 0.01111 0.0132 0.02173 0.0268 0.03256 0.0403 0.03758 0.0466 0.07394 0.0943 0.108 0.14366 0.0091 0.0132 0.0175 0.0269 0.02635 0.0403 0.03352 0.0508 0.06542 0.10269 0.09508 0.15606 0.0069 0.0125 0.01345 0.0251 0.02015 0.0377 0.02955 0.0555 0.05696 0.11204 0.08217 0.17001 0.0053 0.0122 0.0109 0.0243 0.01602 0.0367 0.02571 0.062 0.04871 0.1252 0.06925 0.18965 0.0025 8e-3 0.0048 0.0155 0.0072 0.0233 0.02105 0.0685 0.03934 0.13833 0.05426 0.20929 0.0013 6e-3 0.0029 0.0123 0.0041 0.0186 0.01463 0.0725 0.02565 0.14599 0.03359 0.22066 5.88e-4 6e-3 0.0015 0.011 0.0021 0.0165 0.0078 0.0788 0.01188 0.15891 0.01189 0.23977-5e-6 0.0828-0.0042 0.16479-0.0124 0.24547-0.0082 0.0807-0.02019 0.16012-0.03617 0.23823-0.01599 0.0781-0.03605 0.15481-0.05943 0.22996-0.02338 0.0751-0.05025 0.14888-0.08062 0.22065-0.03036 0.0718-0.06434 0.1418-0.10129 0.20981-0.03695 0.068-0.07676 0.13357-0.11989 0.1974-0.04313 0.0638-0.08958 0.12575-0.13849 0.18501-0.04891 0.0593-0.10023 0.11624-0.15451 0.17053-0.05429 0.0543-0.11127 0.1056-0.17053 0.15451-0.05926 0.0489-0.12117 0.0954-0.185 0.13849-0.06383 0.0431-0.1294 0.083-0.1974 0.11989-0.06801 0.037-0.13803 0.0709-0.20981 0.10129-0.07178 0.0304-0.14551 0.0572-0.22066 0.0806-0.07514 0.0234-0.15185 0.0435-0.22996 0.0594-0.07811 0.016-0.15755 0.028-0.23823 0.0362-0.08067 8e-3 -0.16263 0.0124-0.24546 0.0124-0.08285 1e-5 -0.16478-4e-3 -0.24546-0.0124-0.08069-8e-3 -0.1601-0.0202-0.23823-0.0362-0.07812-0.016-0.1548-0.0361-0.22996-0.0594-0.07516-0.0234-0.14887-0.0503-0.22066-0.0806-0.07179-0.0303-0.14178-0.0638-0.20981-0.10077-0.06802-0.0369-0.13407-0.0773-0.19792-0.12041-0.06385-0.0431-0.12573-0.0891-0.185-0.13797-0.05927-0.0489-0.11572-0.10075-0.17002-0.15503-0.0543-0.0543-0.10611-0.11127-0.15503-0.17053-0.04892-0.0593-0.09535-0.12065-0.13849-0.18449-0.04314-0.0638-0.08294-0.12991-0.11989-0.19792-0.03696-0.068-0.07092-0.13802-0.10129-0.20981-0.03037-0.0718-0.05723-0.1455-0.08062-0.22065-0.02338-0.0752-0.04344-0.15184-0.05943-0.22996-0.01599-0.0781-0.02797-0.15755-0.03617-0.23823-0.0082-0.0807-0.0124-0.16262-0.0124-0.24547 5e-6 -0.0809 0.0041-0.16097 0.01189-0.23977 5.51e-4 -6e-3 0.0015-0.011 0.0021-0.0165 0.0079-0.0743 0.01905-0.14749 0.03359-0.21963 0.0016-8e-3 0.0034-0.0162 0.0052-0.0243 0.01474-0.0694 0.03263-0.13764 0.05323-0.20464 0.0024-8e-3 0.0048-0.0155 0.0072-0.0233 0.02054-0.0645 0.04353-0.12769 0.06925-0.18965 0.0051-0.0123 0.0107-0.0244 0.01602-0.0367 0.02564-0.059 0.05359-0.11674 0.08372-0.17312 6e-3 -0.0112 0.01191-0.0224 0.01809-0.0336 0.02894-0.0521 0.05987-0.1028 0.0925-0.15245 0.01079-0.0165 0.02137-0.0329 0.03256-0.0491 0.03373-0.0487 0.0693-0.0961 0.10645-0.14211 0.0091-0.0113 0.01811-0.0225 0.02739-0.0336 0.03883-0.0463 0.07979-0.0906 0.12196-0.13384 0.01148-0.0118 0.02238-0.0241 0.03411-0.0357 3.48e-4 -3.4e-4 6.86e-4 -6.9e-4 1e-3 -1e-3 0.03875-0.0381 0.07915-0.0747 0.12041-0.11007 0.02714-0.0233 0.05503-0.0456 0.0832-0.0677 0.02719-0.0213 0.05508-0.0419 0.0832-0.062 0.03404-0.0244 0.06853-0.0481 0.10387-0.0708 0.03224-0.0206 0.06492-0.0408 0.09819-0.0599 0.03678-0.0212 0.07416-0.0412 0.11214-0.0605 0.02906-0.0147 0.05864-0.0288 0.08837-0.0424 0.0381-0.0174 0.07662-0.0337 0.11576-0.0491 0.03269-0.0129 0.06584-0.0247 0.09922-0.0362 0.04175-0.0143 0.08385-0.0277 0.12661-0.0398 0.03942-0.0111 0.07915-0.0219 0.11937-0.031 1.63e-4 -4e-5 3.54e-4 3e-5 5.17e-4 0 0.03625-8e-3 0.0727-0.0156 0.10955-0.0222 3.34e-4 -6e-5 6.99e-4 5e-5 1e-3 0 0.03982-7e-3 0.08045-0.013 0.12092-0.0181 0.03565-4e-3 0.07137-8e-3 0.10749-0.0114z" fill="#fff"/>
 </g>
 <path d="m80.391 17.894c-1.4359 8.7e-5 -2.5999 1.1641-2.6 2.6 8.7e-5 1.4359 1.1641 2.5999 2.6 2.6 1.4359-8.7e-5 2.5999-1.1641 2.6-2.6-8.7e-5 -1.4359-1.1641-2.5999-2.6-2.6z" stroke-width="1.0834"/>
 <path d="m50.612 2.2798a2.5999 2.6002 0 0 0-2.6003 2.6 2.5999 2.6002 0 0 0 2.6003 2.6 2.5999 2.6002 0 0 0 2.5997-2.6 2.5999 2.6002 0 0 0-2.5997-2.6z" fill="#f00" stroke-width="1.0833"/>
</svg>
